<svg width="6103" height="953" viewBox="0 0 6103 953" fill="none" xmlns="http://www.w3.org/2000/svg">
<g filter="url(#filter0_i_2_47)">
<g filter="url(#filter1_i_2_47)">
<path d="M5717.73 104.499C5727.09 102.743 5736.7 102.729 5746.07 104.459L5746.74 104.583C5758.37 106.73 5769.39 111.393 5779.03 118.247L5804.16 136.117C5807.4 138.426 5811.63 138.847 5815.27 137.226L5824.22 133.242C5853.67 120.122 5885.56 113.343 5917.81 113.343H5940.43C5975.78 113.343 6010.16 124.863 6038.36 146.16L6042.96 149.627C6076.08 174.635 6097.3 212.3 6101.53 253.587C6104.07 278.363 6100.37 303.381 6090.77 326.363L6090.01 328.171C6078.51 355.714 6059.39 379.408 6034.9 396.475L5899.65 490.74C5894.17 494.564 5890.9 500.828 5890.9 507.515C5890.9 522.146 5905.82 532.043 5919.3 526.351L5927.7 522.802C5931.59 521.16 5935.9 524.016 5935.9 528.237V536.721C5935.9 544.373 5934.2 551.93 5930.93 558.849L5928.94 563.049C5925.01 571.372 5918.59 578.267 5910.56 582.78C5898.2 589.732 5883.27 590.366 5870.36 584.486L5856.83 578.317C5854.31 577.169 5851.45 579.042 5851.5 581.81L5855.44 806.948C5856.06 842.352 5869.42 876.346 5893.08 902.692L5896.21 906.18C5898.23 908.426 5897.34 912.008 5894.51 913.083C5877.94 919.396 5859.68 920.328 5842.57 915.662L5830.69 912.423C5826.87 911.382 5823.33 909.527 5820.29 906.987C5810.42 898.724 5796.13 898.429 5785.93 906.277L5773.33 915.973C5767.46 920.489 5760.6 923.562 5753.33 924.944L5741.17 927.253C5730.44 929.289 5719.41 929.015 5708.8 926.448L5707.84 926.217C5698.64 923.989 5689.96 919.962 5682.32 914.368L5679.26 912.133C5662.69 900.008 5652.9 880.708 5652.9 860.176C5652.9 857.999 5654.97 856.422 5657.07 857.007L5659.98 857.819C5669.55 860.488 5679.43 861.843 5689.36 861.843H5705.4C5714.17 849.821 5718.9 835.323 5718.9 820.44V569.003C5718.9 565.571 5718.55 562.148 5717.88 558.784L5716.29 550.887C5710.66 522.941 5680.85 507.149 5654.56 518.184C5649.79 520.191 5645.18 515.006 5647.73 510.495L5654.22 499.022C5666.69 476.974 5690.06 463.343 5715.39 463.343C5717.34 463.343 5718.93 461.785 5718.98 459.835L5724.63 216.051C5724.8 208.386 5722.92 200.815 5719.16 194.132C5708.27 174.752 5684.35 166.956 5664.13 176.203L5657.35 179.306C5655.39 180.204 5653.19 178.622 5653.42 176.475L5653.71 173.793C5656.06 152.131 5667.27 132.407 5684.68 119.302L5685.4 118.755C5694.94 111.577 5706 106.698 5717.73 104.499ZM5919.75 165.039C5912.24 163.587 5904.54 163.504 5897 164.796L5891.91 165.669C5879.97 167.716 5869.16 173.985 5861.45 183.335C5853.98 192.39 5849.9 203.761 5849.9 215.498V243.843C5862.06 243.843 5873.73 239.009 5882.33 230.407L5883.08 229.66C5890.06 222.675 5901.58 230.395 5897.77 239.51L5883.11 274.557C5880.05 281.894 5874.75 288.082 5867.97 292.243C5856.74 299.14 5849.9 311.374 5849.9 324.555V440.843L5943.93 342.558C5954.81 331.184 5963.43 317.847 5969.33 303.256C5975.32 288.452 5978.4 272.633 5978.4 256.665V248.478C5978.4 238.448 5976.84 228.478 5973.79 218.924L5972.01 213.365C5968.65 202.825 5962.9 193.201 5955.22 185.238L5953.3 183.246C5944.25 173.872 5932.53 167.514 5919.75 165.039Z" fill="white"/>
</g>
<g filter="url(#filter2_i_2_47)">
<path d="M5346.79 109.172C5370.15 109.172 5393.4 112.382 5415.89 118.713L5418.79 119.527C5439.17 125.264 5458.67 133.749 5476.76 144.752C5490.87 153.336 5503.94 163.528 5515.71 175.124L5523.9 183.199C5529.95 189.169 5535.46 195.667 5540.37 202.617C5557.37 226.728 5566.5 255.51 5566.5 285.014V453.509C5566.5 462.812 5568.75 471.978 5573.06 480.221C5579.73 492.967 5591.31 502.442 5605.12 506.457L5623.96 511.933C5625.32 512.328 5626.03 513.811 5625.49 515.117L5623.65 519.592C5618.83 531.308 5608.84 540.125 5596.61 543.459C5578.83 548.308 5566.5 564.457 5566.5 582.885V758.857C5566.5 790.393 5557.38 821.256 5540.24 847.727C5527.88 866.814 5511.68 883.113 5492.67 895.584L5491.69 896.221C5480.61 903.491 5468.64 909.309 5456.07 913.531L5448.79 915.979C5424.75 924.054 5399.57 928.172 5374.22 928.172H5289.75C5262.26 928.172 5235.12 922.044 5210.3 910.234L5208.44 909.348C5193.57 902.275 5179.92 892.9 5167.97 881.569C5154.09 868.398 5142.48 852.907 5133.7 835.899C5121.12 811.511 5114.5 784.353 5114.5 756.911V554.172C5114.5 537.327 5100.84 523.672 5084 523.672H5056.85C5053.16 523.672 5050.7 519.87 5052.2 516.502L5054.56 511.219C5057.83 503.904 5062.27 497.171 5067.71 491.287C5078.3 479.84 5092.24 472.05 5107.54 469.041L5111.49 468.264C5113.24 467.92 5114.5 466.384 5114.5 464.599V266.5C5114.5 253.705 5116.64 241 5120.84 228.913C5124.92 217.164 5130.88 206.157 5138.5 196.325L5144.25 188.906C5151.06 180.108 5158.79 172.057 5167.3 164.888L5173.4 159.756C5186.09 149.07 5200 139.923 5214.83 132.505C5227.9 125.97 5241.67 120.943 5255.88 117.518L5260.7 116.355C5280.5 111.583 5300.79 109.172 5321.15 109.172H5346.79ZM5343.5 186.745C5343.5 185.106 5342.07 183.832 5340.45 184.014L5312.02 187.2C5294.83 189.126 5278.78 196.733 5266.41 208.815C5251.44 223.431 5243 243.467 5243 264.386V767.324C5243 794.831 5258.47 819.999 5283.02 832.416C5284.25 833.041 5285.74 832.296 5285.98 830.932L5288.4 817.177C5290.7 804.087 5298.28 792.52 5309.37 785.191C5317.28 779.96 5326.56 777.172 5336.04 777.172H5341.93C5357.47 777.172 5372.85 780.393 5387.09 786.632L5398.61 791.681C5402.67 793.462 5402.45 799.302 5398.26 800.761L5371.89 809.944C5367.65 811.424 5363.58 813.392 5359.79 815.807C5349.64 822.263 5343.5 833.453 5343.5 845.477V860.126C5343.5 862.244 5345.7 863.646 5347.62 862.751L5383.92 845.83C5400.83 837.944 5414.68 824.71 5423.33 808.171C5429.68 796.019 5433 782.51 5433 768.799V274.672C5433 250.803 5424.42 227.731 5408.83 209.661L5405.68 206.019C5403.97 204.03 5400.71 204.863 5400.17 207.433L5398.95 213.149C5396.39 225.135 5389.82 235.888 5380.31 243.623C5370.73 251.416 5358.76 255.672 5346.41 255.672H5320.95C5314 255.672 5307.08 254.919 5300.3 253.427L5297.31 252.77C5293.65 251.964 5293.18 246.927 5296.64 245.467L5307.64 240.819C5329.37 231.639 5343.5 210.338 5343.5 186.745Z" fill="white"/>
</g>
<g filter="url(#filter3_i_2_47)">
<path d="M2890.03 122.172C2913.4 122.172 2936.65 125.382 2959.14 131.713L2962.03 132.527C2982.41 138.264 3001.92 146.749 3020.01 157.752C3034.12 166.336 3047.19 176.528 3058.95 188.124L3067.14 196.199C3073.2 202.169 3078.71 208.667 3083.61 215.617C3100.62 239.728 3109.75 268.51 3109.75 298.014V466.509C3109.75 475.812 3112 484.978 3116.31 493.221C3122.98 505.967 3134.55 515.442 3148.37 519.457L3167.21 524.933C3168.56 525.328 3169.28 526.811 3168.74 528.117L3166.9 532.592C3162.07 544.308 3152.08 553.125 3139.86 556.459C3122.08 561.308 3109.75 577.457 3109.75 595.885V771.857C3109.75 803.393 3100.63 834.256 3083.49 860.727C3071.13 879.814 3054.93 896.113 3035.91 908.584L3034.94 909.221C3023.86 916.491 3011.88 922.309 2999.32 926.531L2992.03 928.979C2968 937.054 2942.82 941.172 2917.47 941.172H2833C2805.51 941.172 2778.37 935.044 2753.55 923.234L2751.68 922.348C2736.82 915.275 2723.16 905.9 2711.22 894.569C2697.34 881.398 2685.72 865.906 2676.95 848.899C2664.37 824.511 2657.75 797.353 2657.75 769.911V567.172C2657.75 550.327 2644.09 536.672 2627.25 536.672H2600.1C2596.41 536.671 2593.94 532.87 2595.45 529.502L2597.81 524.219C2601.08 516.903 2605.52 510.171 2610.96 504.287C2621.54 492.84 2635.49 485.05 2650.78 482.041L2654.73 481.264C2656.48 480.92 2657.75 479.384 2657.75 477.599V279.5C2657.75 266.705 2659.89 254 2664.09 241.913C2668.16 230.164 2674.13 219.157 2681.75 209.325L2687.49 201.906C2694.31 193.108 2702.04 185.057 2710.55 177.888L2716.65 172.756C2729.33 162.07 2743.24 152.923 2758.08 145.505C2771.15 138.97 2784.92 133.942 2799.12 130.518L2803.95 129.355C2823.74 124.583 2844.03 122.172 2864.4 122.172H2890.03ZM2886.75 199.745C2886.75 198.106 2885.32 196.832 2883.69 197.014L2855.27 200.2C2838.08 202.126 2822.03 209.733 2809.65 221.815C2794.69 236.431 2786.25 256.467 2786.25 277.386V780.324C2786.25 807.831 2801.72 832.999 2826.26 845.416C2827.5 846.041 2828.99 845.296 2829.23 843.932L2831.64 830.177C2833.94 817.087 2841.53 805.52 2852.61 798.191C2860.53 792.96 2869.8 790.172 2879.29 790.172H2885.18C2900.72 790.172 2916.1 793.393 2930.33 799.632L2941.86 804.681C2945.92 806.462 2945.69 812.302 2941.5 813.761L2915.14 822.944C2910.89 824.424 2906.83 826.392 2903.03 828.807C2892.89 835.263 2886.75 846.453 2886.75 858.477V873.126C2886.75 875.244 2888.95 876.646 2890.87 875.751L2927.16 858.83C2944.08 850.944 2957.93 837.71 2966.58 821.171C2972.93 809.019 2976.25 795.51 2976.25 781.799V287.672C2976.25 263.803 2967.67 240.731 2952.07 222.661L2948.93 219.019C2947.21 217.03 2943.96 217.863 2943.41 220.433L2942.19 226.149C2939.64 238.136 2933.06 248.888 2923.56 256.623C2913.98 264.416 2902 268.672 2889.65 268.672H2864.19C2857.25 268.672 2850.32 267.919 2843.54 266.427L2840.56 265.77C2836.89 264.964 2836.43 259.926 2839.89 258.467L2850.89 253.819C2872.62 244.639 2886.75 223.338 2886.75 199.745Z" fill="white"/>
</g>
<g filter="url(#filter4_i_2_47)">
<path d="M2316.03 109.172C2339.4 109.172 2362.65 112.382 2385.14 118.713L2388.03 119.527C2408.41 125.264 2427.92 133.749 2446.01 144.752C2460.12 153.336 2473.19 163.528 2484.95 175.124L2493.14 183.199C2499.2 189.169 2504.71 195.667 2509.61 202.617C2526.62 226.728 2535.75 255.51 2535.75 285.014V453.509C2535.75 462.812 2538 471.978 2542.31 480.221C2548.98 492.967 2560.55 502.442 2574.37 506.457L2593.21 511.933C2594.56 512.328 2595.28 513.811 2594.74 515.117L2592.9 519.592C2588.07 531.308 2578.08 540.125 2565.86 543.459C2548.08 548.308 2535.75 564.457 2535.75 582.885V758.857C2535.75 790.393 2526.63 821.256 2509.49 847.727C2497.13 866.814 2480.93 883.113 2461.91 895.584L2460.94 896.221C2449.86 903.491 2437.88 909.309 2425.32 913.531L2418.03 915.979C2394 924.054 2368.82 928.172 2343.47 928.172H2259C2231.51 928.172 2204.37 922.044 2179.55 910.234L2177.68 909.348C2162.82 902.275 2149.16 892.9 2137.22 881.569C2123.34 868.398 2111.72 852.906 2102.95 835.899C2090.37 811.511 2083.75 784.353 2083.75 756.911V554.172C2083.75 537.327 2070.09 523.672 2053.25 523.672H2026.1C2022.41 523.671 2019.94 519.87 2021.45 516.502L2023.81 511.219C2027.08 503.903 2031.52 497.171 2036.96 491.287C2047.54 479.84 2061.49 472.05 2076.78 469.041L2080.73 468.264C2082.48 467.92 2083.75 466.384 2083.75 464.599V266.5C2083.75 253.705 2085.89 241 2090.09 228.913C2094.16 217.164 2100.13 206.157 2107.75 196.325L2113.49 188.906C2120.31 180.108 2128.04 172.057 2136.55 164.888L2142.65 159.756C2155.33 149.07 2169.24 139.923 2184.08 132.505C2197.15 125.97 2210.92 120.942 2225.12 117.518L2229.95 116.355C2249.74 111.583 2270.03 109.172 2290.4 109.172H2316.03ZM2312.75 186.745C2312.75 185.106 2311.32 183.832 2309.69 184.014L2281.27 187.2C2264.08 189.126 2248.03 196.733 2235.65 208.815C2220.69 223.431 2212.25 243.467 2212.25 264.386V767.324C2212.25 794.831 2227.72 819.999 2252.26 832.416C2253.5 833.041 2254.99 832.296 2255.23 830.932L2257.64 817.177C2259.94 804.087 2267.53 792.52 2278.61 785.191C2286.53 779.96 2295.8 777.172 2305.29 777.172H2311.18C2326.72 777.172 2342.1 780.393 2356.33 786.632L2367.86 791.681C2371.92 793.462 2371.69 799.302 2367.5 800.761L2341.14 809.944C2336.89 811.424 2332.83 813.392 2329.03 815.807C2318.89 822.263 2312.75 833.453 2312.75 845.477V860.126C2312.75 862.244 2314.95 863.646 2316.87 862.751L2353.16 845.83C2370.08 837.944 2383.93 824.71 2392.58 808.171C2398.93 796.019 2402.25 782.51 2402.25 768.799V274.672C2402.25 250.803 2393.67 227.731 2378.07 209.661L2374.93 206.019C2373.21 204.03 2369.96 204.863 2369.41 207.433L2368.19 213.149C2365.64 225.136 2359.06 235.888 2349.56 243.623C2339.98 251.416 2328 255.672 2315.65 255.672H2290.19C2283.25 255.672 2276.32 254.919 2269.54 253.427L2266.56 252.77C2262.89 251.964 2262.43 246.926 2265.89 245.467L2276.89 240.819C2298.62 231.639 2312.75 210.338 2312.75 186.745Z" fill="white"/>
</g>
<g filter="url(#filter5_i_2_47)">
<path d="M4520.37 181.954L4548.23 176.498C4552.69 175.624 4557.29 175.734 4561.7 176.82C4575.68 180.256 4585.5 192.788 4585.5 207.179V465.871C4585.5 469.038 4583.48 471.852 4580.48 472.862L4568.87 476.768C4545.39 484.667 4526.35 502.118 4516.43 524.816L4515.92 525.98C4514.54 529.137 4516.86 532.672 4520.3 532.672H4535.76C4554.6 532.672 4571.82 543.317 4580.25 560.169C4583.7 567.076 4585.5 574.692 4585.5 582.414V833.188C4585.5 845.449 4578.62 856.671 4567.68 862.225C4559.6 866.335 4550.16 866.886 4541.65 863.745L4522.21 856.57C4518.33 855.138 4514.44 858.664 4515.49 862.665L4519.79 879.084C4524.12 895.59 4534.24 909.99 4548.3 919.657C4560.15 927.808 4574.2 932.172 4588.59 932.172H4595.51C4620.66 932.172 4644.01 919.094 4657.15 897.643L4658.13 896.037C4659.3 894.136 4661.98 893.936 4663.42 895.642C4668.41 901.584 4674.69 906.31 4681.78 909.461L4684.27 910.572C4698.88 917.061 4715.4 917.751 4730.49 912.502L4743.23 908.07C4747.65 906.531 4748.83 900.825 4745.39 897.648C4725.4 879.194 4714 853.198 4714 825.991V600.603C4714 591.15 4716.5 581.865 4721.24 573.687C4729.31 559.753 4743.22 550.184 4759.12 547.62L4765.84 546.537C4775.43 544.989 4785.27 546.078 4794.29 549.688L4801.32 552.5C4817.43 558.945 4828 574.551 4828 591.906C4828 606.671 4820.33 620.375 4807.74 628.091L4781.02 644.465C4775.98 647.554 4777.6 655.259 4783.46 656.06L4813.5 660.172H4822.79C4841.52 660.172 4859.84 654.694 4875.49 644.414C4879.58 641.734 4885 644.662 4885 649.544V835.554C4885 846.568 4879.52 856.862 4870.39 863.017C4864.92 866.703 4858.48 868.672 4851.88 868.672H4821.92C4817.76 868.672 4814.79 872.727 4816.06 876.698L4820.74 891.38C4825.39 905.989 4835.59 918.19 4849.14 925.364C4857.59 929.835 4866.99 932.172 4876.55 932.172H4890.17C4912.24 932.172 4933.84 925.732 4952.3 913.641L4961.84 907.395C4964.45 905.685 4967.73 905.337 4970.64 906.46L4972.99 907.365C4995.65 916.102 5020.11 919.14 5044.22 916.21L5046.78 915.899C5053.01 915.142 5056.01 907.86 5052.11 902.941C5034.55 880.746 5025 853.274 5025 824.974V219.411C5025 215.283 5025.72 211.186 5027.12 207.302C5032.4 192.643 5046.59 183.108 5062.16 183.75L5079.7 184.474C5082.16 184.575 5084.06 182.366 5083.6 179.955L5079.79 159.844C5077.99 150.388 5072.81 141.912 5065.21 136.003C5058.27 130.603 5049.73 127.672 5040.93 127.672H5028.7C5019.32 127.672 5010.01 129.429 5001.28 132.852L4969.72 145.216C4967.51 146.081 4964.99 145.402 4963.52 143.543C4951.54 128.42 4934.73 117.861 4915.91 113.626L4912.67 112.898C4894.74 108.863 4875.97 110.932 4859.35 118.777L4857.02 119.875C4846.18 124.993 4836.78 132.725 4829.66 142.378C4822.98 151.448 4818.51 161.954 4816.61 173.059L4815.28 180.797C4814.58 184.886 4818.99 187.921 4822.55 185.806L4831.87 180.283C4837.52 176.937 4843.96 175.172 4850.53 175.172H4851.49C4858.33 175.172 4865.01 177.266 4870.63 181.173C4879.63 187.437 4885 197.712 4885 208.681V470.73C4885 479.72 4876.1 485.998 4867.63 482.98C4845.71 475.166 4822.6 471.172 4799.33 471.172H4792.27C4770.62 471.172 4749.16 475.261 4729.03 483.225C4721.82 486.078 4714 480.763 4714 473.007V232.225C4714 219.979 4718.64 208.186 4726.97 199.218C4735.64 189.897 4747.63 184.358 4760.34 183.799L4778.37 183.007C4782.23 182.837 4784.89 179.064 4783.76 175.366L4778.25 157.386C4775.8 149.423 4771.05 142.365 4764.59 137.107C4757.09 131.004 4747.72 127.672 4738.05 127.672H4726.73C4718.31 127.672 4709.94 129.113 4702 131.932L4664.69 145.185C4662.09 146.106 4659.21 145.583 4657.1 143.811L4651.38 139C4636.79 126.723 4618.89 119.039 4599.93 116.916L4591.2 115.938C4575.2 114.147 4559.07 117.814 4545.42 126.344C4533.1 134.045 4523.42 145.323 4517.68 158.672L4512.09 171.686C4509.72 177.196 4514.49 183.107 4520.37 181.954Z" fill="white"/>
</g>
<g filter="url(#filter6_i_2_47)">
<path d="M49 339.876V201.006C49 185.634 36.5379 173.172 21.1652 173.172C15.8377 173.172 12.9904 166.897 16.4986 162.888L24.6425 153.58C29.4942 148.035 35.4482 143.562 42.1248 140.447L53.1213 135.315C59.0289 132.558 65.1686 130.329 71.4687 128.653L83.4842 125.458C100.423 120.953 117.875 118.672 135.403 118.672H167L177.107 119.96C204.091 123.399 230.102 132.253 253.581 145.99L265 152.672L282.933 143.002C304.79 131.216 328.633 123.561 353.266 120.422L367 118.672H412.458C430.06 118.672 447.569 121.222 464.439 126.243L468.641 127.493C476.862 129.94 484.833 133.159 492.447 137.107L501.25 141.672C505.732 143.995 509.896 146.884 513.642 150.268L525.938 161.374C530.54 165.53 527.6 173.172 521.399 173.172C504.61 173.172 491 186.782 491 203.571V342.253C491 358.187 497.431 373.446 508.836 384.573C517.292 392.822 511.451 407.172 499.639 407.172H485.475C468.234 407.172 451.4 401.928 437.208 392.138L429.583 386.878C398.537 365.46 380 330.151 380 292.434V186.672L333 213.672V832.172L330.852 848.998C328.52 867.268 337.558 885.237 353.53 894.412C361.183 898.809 359.951 910.304 351.483 912.794C343.958 915.007 335.986 915.216 328.357 913.399L298 906.172L288 899.172L270.338 914.146C252.24 929.49 228.65 936.756 205.055 934.253L201.788 933.907C185.057 932.132 169.368 924.929 157.116 913.398L154.958 911.368C146.471 903.379 140.216 893.176 136.891 882.005C133.662 871.156 143.465 860.776 154.426 863.604L165.944 866.576C172.463 868.259 179.357 867.733 185.546 865.08C196.741 860.283 204 849.274 204 837.094V567.234C204 556.404 199.268 546.116 191.046 539.068C181.644 531.009 168.841 528.173 156.916 531.507L138.821 536.566C134.907 537.66 131.388 533.884 132.755 530.057L134.652 524.745C139.498 511.177 147.105 498.761 156.992 488.281L161.168 483.854C165.037 479.752 169.459 476.21 174.306 473.328C192.717 462.381 204 442.544 204 421.124V213.672L159 186.672V298.771C159 332.722 143.094 364.712 116.023 385.203L111.24 388.824C95.5114 400.729 76.3252 407.172 56.5992 407.172H35.9581C23.9094 407.172 18.5217 392.052 27.8554 384.433C41.2366 373.509 49 357.15 49 339.876Z" fill="white"/>
</g>
<g filter="url(#filter7_i_2_47)">
<path d="M1005 340.376V201.506C1005 186.134 992.538 173.672 977.165 173.672C971.838 173.672 968.99 167.397 972.499 163.388L980.643 154.08C985.494 148.535 991.448 144.062 998.125 140.947L1009.12 135.815C1015.03 133.058 1021.17 130.829 1027.47 129.153L1039.48 125.958C1056.42 121.453 1073.88 119.172 1091.4 119.172H1123L1133.11 120.46C1160.09 123.899 1186.1 132.753 1209.58 146.49L1221 153.172L1238.93 143.502C1260.79 131.716 1284.63 124.061 1309.27 120.922L1323 119.172H1368.46C1386.06 119.172 1403.57 121.722 1420.44 126.743L1424.64 127.993C1432.86 130.44 1440.83 133.659 1448.45 137.607L1457.25 142.172C1461.73 144.495 1465.9 147.384 1469.64 150.768L1481.94 161.874C1486.54 166.03 1483.6 173.672 1477.4 173.672C1460.61 173.672 1447 187.282 1447 204.071V342.753C1447 358.687 1453.43 373.946 1464.84 385.073C1473.29 393.322 1467.45 407.672 1455.64 407.672H1441.48C1424.23 407.672 1407.4 402.428 1393.21 392.638L1385.58 387.378C1354.54 365.96 1336 330.651 1336 292.934V187.172L1289 214.172V832.672L1286.85 849.498C1284.52 867.768 1293.56 885.737 1309.53 894.912C1317.18 899.309 1315.95 910.804 1307.48 913.294C1299.96 915.507 1291.99 915.716 1284.36 913.899L1254 906.672L1244 899.672L1226.34 914.646C1208.24 929.99 1184.65 937.256 1161.06 934.753L1157.79 934.407C1141.06 932.632 1125.37 925.429 1113.12 913.898L1110.96 911.868C1102.47 903.879 1096.22 893.676 1092.89 882.505C1089.66 871.656 1099.47 861.276 1110.43 864.104L1121.94 867.076C1128.46 868.759 1135.36 868.233 1141.55 865.58C1152.74 860.783 1160 849.774 1160 837.594V567.734C1160 556.904 1155.27 546.616 1147.05 539.568C1137.64 531.509 1124.84 528.673 1112.92 532.007L1094.82 537.066C1090.91 538.16 1087.39 534.384 1088.76 530.557L1090.65 525.245C1095.5 511.677 1103.1 499.261 1112.99 488.781L1117.17 484.354C1121.04 480.252 1125.46 476.71 1130.31 473.828C1148.72 462.881 1160 443.044 1160 421.624V214.172L1115 187.172V299.271C1115 333.222 1099.09 365.212 1072.02 385.703L1067.24 389.324C1051.51 401.229 1032.33 407.672 1012.6 407.672H991.958C979.909 407.672 974.522 392.552 983.855 384.933C997.237 374.009 1005 357.65 1005 340.376Z" fill="white"/>
</g>
<g filter="url(#filter8_i_2_47)">
<path d="M1544 340.376V201.506C1544 186.134 1531.54 173.672 1516.17 173.672C1510.84 173.672 1507.99 167.397 1511.5 163.388L1519.64 154.08C1524.49 148.535 1530.45 144.062 1537.12 140.947L1548.12 135.815C1554.03 133.058 1560.17 130.829 1566.47 129.153L1578.48 125.958C1595.42 121.453 1612.88 119.172 1630.4 119.172H1662L1672.11 120.46C1699.09 123.899 1725.1 132.753 1748.58 146.49L1760 153.172L1777.93 143.502C1799.79 131.716 1823.63 124.061 1848.27 120.922L1862 119.172H1907.46C1925.06 119.172 1942.57 121.722 1959.44 126.743L1963.64 127.993C1971.86 130.44 1979.83 133.659 1987.45 137.607L1996.25 142.172C2000.73 144.495 2004.9 147.384 2008.64 150.768L2020.94 161.874C2025.54 166.03 2022.6 173.672 2016.4 173.672C1999.61 173.672 1986 187.282 1986 204.071V342.753C1986 358.687 1992.43 373.946 2003.84 385.073C2012.29 393.322 2006.45 407.672 1994.64 407.672H1980.48C1963.23 407.672 1946.4 402.428 1932.21 392.638L1924.58 387.378C1893.54 365.96 1875 330.651 1875 292.934V187.172L1828 214.172V832.672L1825.85 849.498C1823.52 867.768 1832.56 885.737 1848.53 894.912C1856.18 899.309 1854.95 910.804 1846.48 913.294C1838.96 915.507 1830.99 915.716 1823.36 913.899L1793 906.672L1783 899.672L1765.34 914.646C1747.24 929.99 1723.65 937.256 1700.06 934.753L1696.79 934.407C1680.06 932.632 1664.37 925.429 1652.12 913.898L1649.96 911.868C1641.47 903.879 1635.22 893.676 1631.89 882.505C1628.66 871.656 1638.47 861.276 1649.43 864.104L1660.94 867.076C1667.46 868.759 1674.36 868.233 1680.55 865.58C1691.74 860.783 1699 849.774 1699 837.594V567.734C1699 556.904 1694.27 546.616 1686.05 539.568C1676.64 531.509 1663.84 528.673 1651.92 532.007L1633.82 537.066C1629.91 538.16 1626.39 534.384 1627.76 530.557L1629.65 525.245C1634.5 511.677 1642.1 499.261 1651.99 488.781L1656.17 484.354C1660.04 480.252 1664.46 476.71 1669.31 473.828C1687.72 462.881 1699 443.044 1699 421.624V214.172L1654 187.172V299.271C1654 333.222 1638.09 365.212 1611.02 385.703L1606.24 389.324C1590.51 401.229 1571.33 407.672 1551.6 407.672H1530.96C1518.91 407.672 1513.52 392.552 1522.86 384.933C1536.24 374.009 1544 357.65 1544 340.376Z" fill="white"/>
</g>
<g filter="url(#filter9_i_2_47)">
<path d="M645.595 125.46C660.765 116.471 678.29 112.255 695.889 113.364L712.746 114.426C725.85 115.252 738.612 118.95 750.127 125.259L769.007 135.605L794.901 122.241C808.297 115.327 823.363 112.305 838.389 113.519C855.796 114.926 872.276 121.944 885.353 133.52L885.857 133.967C892.504 139.851 898.16 146.767 902.607 154.449L914.959 175.785C918.308 181.569 912.989 188.513 906.532 186.788L871.875 177.526C867.464 176.347 862.778 176.757 858.638 178.682C850.187 182.613 845.706 191.982 847.952 201.028L861.985 257.551L861.987 257.558L861.989 257.566L904.909 457.1C906.024 462.283 909.665 466.665 914.415 469.884C919.163 473.102 924.976 475.123 930.34 475.606C932.327 475.785 932.41 476.073 934.155 476.596L947.896 480.718C950.09 481.376 952.204 482.278 954.197 483.407C969.46 492.046 981.383 505.94 985.607 523.009C986.113 525.051 986.582 527.073 986.988 529.013C988.283 535.193 982.998 539.99 976.856 539.147L936.951 533.668L929.67 533.007C927.486 532.809 925.336 533.646 923.861 535.268C922.396 536.88 921.765 539.082 922.154 541.225L923.49 548.57L985.938 850.719C987.601 858.769 991.091 866.331 996.138 872.82L997.467 874.528C1002.91 881.528 1010.25 886.818 1018.61 889.769C1021.24 890.697 1024.01 891.171 1026.8 891.171H1035.27C1043.23 891.172 1048.97 898.799 1046.77 906.449C1043.4 918.159 1034.71 927.599 1023.32 931.93L1015.22 935.01C1008.85 937.431 1002.1 938.671 995.293 938.671H968.719C957.057 938.671 945.644 935.301 935.853 928.965L908.509 911.272L898.062 918.491C886.958 926.162 874.262 931.224 860.926 933.295L842.748 936.12C834.01 937.477 825.076 936.78 816.653 934.085C808.483 931.471 801.009 927.044 794.789 921.135L791.547 918.055C786.609 913.365 782.32 908.036 778.794 902.209L775.035 896C773.589 893.609 774.647 890.492 777.25 889.477L806.366 878.122C817.049 873.955 826.407 866.977 833.447 857.925L836.221 854.359C841.012 848.198 844.161 840.922 845.37 833.211C846.749 824.419 845.553 815.415 841.925 807.289L826.706 773.199C823.956 767.038 820.51 761.212 816.436 755.834L780.533 708.442C775.367 701.622 768.665 696.117 760.973 692.372C728.847 676.731 690.621 695.763 683.737 730.825L672.023 790.493C667.862 811.689 672.197 833.671 684.093 851.701C692.742 864.809 704.959 875.171 719.304 881.564L739.571 890.596C741.736 891.561 742.471 894.269 741.091 896.196L739.196 898.842C725.294 918.253 702.114 928.803 678.346 926.54C668.79 925.629 659.541 922.677 651.225 917.883L621.527 900.763L600.798 915.486C591.819 921.862 581.74 926.527 571.068 929.246L541.138 936.87C536.44 938.066 531.611 938.671 526.763 938.671C506.54 938.671 487.765 928.18 477.166 910.957L473.767 905.433C469.904 899.156 473.621 890.964 480.89 889.738C497.756 886.893 512.311 876.298 520.202 861.123L528.44 845.28C531.819 838.782 534.378 831.89 536.059 824.762L553.034 752.773C557.627 733.296 551.564 712.843 537.099 699.016C530.184 692.407 525.03 684.176 522.103 675.07L520.007 668.549C518.346 663.381 517.5 657.986 517.5 652.557C517.5 642.42 520.449 632.501 525.986 624.01L531.36 615.77C537.081 606.999 545.487 600.316 555.322 596.72L562.165 594.218C576.779 588.875 586.5 574.972 586.5 559.412V547.731C586.5 543.145 584.295 538.839 580.573 536.16C576.728 533.391 571.759 532.714 567.313 534.352L540.005 544.414C533.97 546.637 527.804 541.456 528.954 535.128L530.045 529.128C532.321 516.612 538.247 505.047 547.078 495.889C555.987 486.65 567.45 480.278 580 477.588L601.475 472.987C602.453 472.777 603.452 472.671 604.453 472.671C610.882 472.671 616.379 468.043 617.473 461.708L662.004 203.794C662.938 198.385 661.554 192.832 658.191 188.493C652.475 181.117 642.343 178.81 633.996 182.983L628.733 185.614L616.831 191.878C613.546 193.607 609.698 190.839 610.293 187.174L613.754 165.876C614.921 158.697 617.59 151.845 621.588 145.768C625.903 139.209 631.657 133.72 638.411 129.717L645.595 125.46ZM748.508 387.583L711.508 593.083L711.45 593.403L711.72 593.585C718.998 598.521 732.572 605.958 744.91 612.254C751.083 615.404 756.955 618.273 761.586 620.405C763.901 621.471 765.91 622.355 767.493 622.998C769.057 623.633 770.254 624.054 770.918 624.165C771.141 624.202 771.467 624.322 771.903 624.549C772.333 624.773 772.842 625.087 773.423 625.485C774.585 626.28 776.009 627.395 777.633 628.759C780.879 631.487 784.892 635.186 789.142 639.269C797.638 647.433 807.058 657.102 813.138 663.515L814.408 664.856L813.987 663.057L749.487 387.557L748.508 387.583Z" fill="white"/>
</g>
<g filter="url(#filter10_i_2_47)">
<path d="M4046.48 141.158L4056.3 139.785C4068.52 138.078 4080.97 139.852 4092.22 144.904C4112.09 153.825 4135.09 152.293 4153.61 140.816L4172.83 128.898C4189.94 118.291 4209.66 112.672 4229.79 112.672H4262.26C4294.05 112.672 4325.47 119.495 4354.39 132.681L4375.19 142.163C4399.66 153.319 4420.89 170.514 4436.89 192.131C4457.09 219.435 4468 252.504 4468 286.471V358.575C4468 371.192 4474.07 383.037 4484.32 390.401C4494.21 397.507 4506.83 399.614 4518.49 396.104L4539.3 389.84C4542.52 388.87 4545.59 391.728 4544.86 395.012L4539.74 417.951C4536.66 431.727 4529.21 444.136 4518.49 453.322C4506.56 463.55 4491.36 469.172 4475.65 469.172H4464.63C4449.11 469.172 4433.82 465.395 4420.09 458.167L4386.35 440.407C4384.88 439.635 4383.13 439.647 4381.67 440.439C4364.64 449.7 4345.16 453.461 4325.91 451.206L4312.41 449.625C4306.89 448.979 4304.14 442.603 4307.46 438.144L4309.74 435.08C4332.63 404.296 4345 366.952 4345 328.586V302.272C4345 274.063 4340.37 246.045 4331.3 219.334L4327 206.672L4315.24 199.156C4299.41 189.045 4281.02 183.672 4262.24 183.672C4239.15 183.672 4216.71 191.859 4199 206.672L4194.48 221.197C4186.54 246.7 4182.5 273.257 4182.5 299.968V387.672C4182.5 407.66 4193.57 426.004 4211.25 435.321L4275.5 469.172L4355.5 501.93L4399.47 524.744C4414.02 532.291 4426.97 542.582 4437.61 555.05C4457.22 578.041 4468 607.274 4468 637.497V769.36C4468 804.366 4457.11 838.506 4436.85 867.05L4428.92 878.215C4424 885.144 4418.03 891.262 4411.23 896.348C4387.93 913.755 4361.69 926.822 4333.76 934.923L4310.5 941.672L4292.51 944.9C4265.71 949.711 4238.27 949.846 4211.42 945.298L4190 941.672L4184.27 940.506C4151.11 933.757 4120.57 917.69 4096.22 894.19C4092.41 890.518 4088.93 886.529 4085.79 882.268L4060.75 848.178C4056.59 842.518 4052.94 836.503 4049.83 830.204C4041.72 813.736 4037.5 795.624 4037.5 777.265V666.021C4037.5 654.964 4029.92 645.348 4019.17 642.76C4013.58 641.413 4007.69 642.128 4002.58 644.773L3979.22 656.863C3975.2 658.943 3970.71 655.028 3972.23 650.763L3979.48 630.312C3982.78 621.008 3988.16 612.579 3995.21 605.666C4005.14 595.928 4017.93 589.634 4031.71 587.712L4039.85 586.576C4062.44 583.425 4085.37 588.975 4104.02 602.102L4120.02 613.371C4122.42 615.06 4125.61 615.108 4128.06 613.492L4133.46 609.928C4143.73 603.148 4155.16 598.318 4167.19 595.68C4182.19 592.385 4197.76 592.585 4212.68 596.263L4214.84 596.797C4219.55 597.959 4220.81 604.071 4216.97 607.041C4189.64 628.189 4173.5 660.906 4173.5 695.469V765.29C4173.5 771.868 4174.02 778.435 4175.04 784.932L4178.37 806C4181.03 822.86 4189.78 838.16 4202.96 849.004C4209.92 854.728 4217.92 859.05 4226.53 861.732L4229.31 862.6C4244.15 867.225 4259.98 867.678 4275.06 863.908L4281.44 862.311C4293.6 859.271 4304.76 853.11 4313.81 844.437C4327.98 830.853 4336 812.07 4336 792.436V647.172C4336 628.346 4324.84 611.313 4307.58 603.8L4135.04 528.707C4112.45 518.874 4093.01 503.004 4078.85 482.84C4063 460.278 4054.5 433.378 4054.5 405.807V210.775C4054.5 199.842 4050.07 189.374 4042.23 181.759C4039.1 178.721 4035.49 176.209 4031.56 174.321L4010.6 164.262C4006.18 162.138 4006.02 155.896 4010.33 153.552L4012.55 152.345C4023.1 146.61 4034.59 142.82 4046.48 141.158Z" fill="white"/>
</g>
<g filter="url(#filter11_i_2_47)">
<path d="M3247.48 136.658L3257.3 135.285C3269.52 133.578 3281.97 135.352 3293.22 140.404C3313.09 149.325 3336.09 147.793 3354.61 136.316L3373.83 124.398C3390.94 113.791 3410.66 108.172 3430.79 108.172H3463.26C3495.05 108.172 3526.47 114.995 3555.39 128.181L3576.19 137.663C3600.66 148.819 3621.89 166.014 3637.89 187.631C3658.09 214.935 3669 248.004 3669 281.971V354.075C3669 366.692 3675.07 378.537 3685.32 385.901C3695.21 393.007 3707.83 395.114 3719.49 391.604L3740.3 385.34C3743.52 384.37 3746.59 387.228 3745.86 390.512L3740.74 413.451C3737.66 427.227 3730.21 439.636 3719.49 448.822C3707.56 459.05 3692.36 464.672 3676.65 464.672H3665.63C3650.11 464.672 3634.82 460.895 3621.09 453.667L3587.35 435.907C3585.88 435.135 3584.13 435.147 3582.67 435.939C3565.64 445.2 3546.16 448.961 3526.91 446.706L3513.41 445.125C3507.89 444.479 3505.14 438.103 3508.46 433.644L3510.74 430.58C3533.63 399.796 3546 362.452 3546 324.086V297.772C3546 269.563 3541.37 241.545 3532.3 214.834L3528 202.172L3516.24 194.656C3500.41 184.545 3482.02 179.172 3463.24 179.172C3440.15 179.172 3417.71 187.359 3400 202.172L3395.48 216.697C3387.54 242.2 3383.5 268.757 3383.5 295.468V383.172C3383.5 403.16 3394.57 421.504 3412.25 430.821L3476.5 464.672L3556.5 497.43L3600.47 520.244C3615.02 527.791 3627.97 538.082 3638.61 550.55C3658.22 573.541 3669 602.774 3669 632.997V764.86C3669 799.866 3658.11 834.006 3637.85 862.55L3629.92 873.715C3625 880.644 3619.03 886.762 3612.23 891.848C3588.93 909.255 3562.69 922.322 3534.76 930.423L3511.5 937.172L3493.51 940.4C3466.71 945.211 3439.27 945.346 3412.42 940.798L3391 937.172L3385.27 936.006C3352.11 929.257 3321.57 913.19 3297.22 889.69C3293.41 886.018 3289.93 882.029 3286.79 877.768L3261.75 843.678C3257.59 838.018 3253.94 832.003 3250.83 825.704C3242.72 809.236 3238.5 791.124 3238.5 772.765V661.521C3238.5 650.464 3230.92 640.848 3220.17 638.26C3214.58 636.913 3208.69 637.628 3203.58 640.273L3180.22 652.363C3176.2 654.443 3171.71 650.528 3173.23 646.263L3180.48 625.812C3183.78 616.508 3189.16 608.079 3196.21 601.166C3206.14 591.428 3218.93 585.134 3232.71 583.212L3240.85 582.076C3263.44 578.925 3286.37 584.475 3305.02 597.602L3321.02 608.871C3323.42 610.56 3326.61 610.608 3329.06 608.992L3334.46 605.428C3344.73 598.648 3356.16 593.818 3368.19 591.18C3383.19 587.885 3398.76 588.085 3413.68 591.763L3415.84 592.297C3420.55 593.459 3421.81 599.571 3417.97 602.541C3390.64 623.689 3374.5 656.406 3374.5 690.969V760.79C3374.5 767.368 3375.02 773.935 3376.04 780.432L3379.37 801.5C3382.03 818.36 3390.78 833.66 3403.96 844.504C3410.92 850.228 3418.92 854.55 3427.53 857.232L3430.31 858.1C3445.15 862.725 3460.98 863.178 3476.06 859.408L3482.44 857.811C3494.6 854.771 3505.76 848.61 3514.81 839.937C3528.98 826.353 3537 807.57 3537 787.936V642.672C3537 623.846 3525.84 606.813 3508.58 599.3L3336.04 524.207C3313.45 514.374 3294.01 498.504 3279.85 478.34C3264 455.778 3255.5 428.878 3255.5 401.307V206.275C3255.5 195.342 3251.07 184.874 3243.23 177.259C3240.1 174.221 3236.49 171.709 3232.56 169.821L3211.6 159.762C3207.18 157.638 3207.02 151.396 3211.33 149.052L3213.55 147.845C3224.1 142.11 3235.59 138.32 3247.48 136.658Z" fill="white"/>
</g>
</g>
<g filter="url(#filter12_i_2_47)">
<path d="M3112.72 50.2002L3120.87 46.0572C3126.54 43.1743 3132.82 41.6716 3139.18 41.6716L3147.38 41.6716C3176.33 41.6716 3200.78 63.1647 3204.49 91.8763C3206.12 104.473 3203.53 117.255 3197.14 128.232L3172.01 171.407C3167.89 178.473 3157.25 176.841 3155.44 168.867L3147.15 132.286C3144.21 119.324 3134.51 108.952 3121.78 105.152L3117.58 103.899C3107.85 100.996 3100.34 93.2211 3097.78 83.3952C3094.35 70.1947 3100.56 56.3816 3112.72 50.2002Z" fill="white"/>
</g>
<defs>
<filter id="filter0_i_2_47" x="5.55239" y="93.7716" width="6096.75" height="854.84" filterUnits="userSpaceOnUse" color-interpolation-filters="sRGB">
<feFlood flood-opacity="0" result="BackgroundImageFix"/>
<feBlend mode="normal" in="SourceGraphic" in2="BackgroundImageFix" result="shape"/>
<feColorMatrix in="SourceAlpha" type="matrix" values="0 0 0 0 0 0 0 0 0 0 0 0 0 0 0 0 0 0 127 0" result="hardAlpha"/>
<feOffset dx="-10" dy="-21"/>
<feGaussianBlur stdDeviation="4.7"/>
<feComposite in2="hardAlpha" operator="arithmetic" k2="-1" k3="1"/>
<feColorMatrix type="matrix" values="0 0 0 0 0.46248 0 0 0 0 0.46248 0 0 0 0 0.46248 0 0 0 0.59 0"/>
<feBlend mode="normal" in2="shape" result="effect1_innerShadow_2_47"/>
</filter>
<filter id="filter1_i_2_47" x="5637.6" y="93.7716" width="464.706" height="834.829" filterUnits="userSpaceOnUse" color-interpolation-filters="sRGB">
<feFlood flood-opacity="0" result="BackgroundImageFix"/>
<feBlend mode="normal" in="SourceGraphic" in2="BackgroundImageFix" result="shape"/>
<feColorMatrix in="SourceAlpha" type="matrix" values="0 0 0 0 0 0 0 0 0 0 0 0 0 0 0 0 0 0 127 0" result="hardAlpha"/>
<feOffset dx="-10" dy="-21"/>
<feGaussianBlur stdDeviation="4.7"/>
<feComposite in2="hardAlpha" operator="arithmetic" k2="-1" k3="1"/>
<feColorMatrix type="matrix" values="0 0 0 0 0.46248 0 0 0 0 0.46248 0 0 0 0 0.46248 0 0 0 0.59 0"/>
<feBlend mode="normal" in2="shape" result="effect1_innerShadow_2_47"/>
</filter>
<filter id="filter2_i_2_47" x="5042.35" y="99.7716" width="583.317" height="828.4" filterUnits="userSpaceOnUse" color-interpolation-filters="sRGB">
<feFlood flood-opacity="0" result="BackgroundImageFix"/>
<feBlend mode="normal" in="SourceGraphic" in2="BackgroundImageFix" result="shape"/>
<feColorMatrix in="SourceAlpha" type="matrix" values="0 0 0 0 0 0 0 0 0 0 0 0 0 0 0 0 0 0 127 0" result="hardAlpha"/>
<feOffset dx="-10" dy="-21"/>
<feGaussianBlur stdDeviation="4.7"/>
<feComposite in2="hardAlpha" operator="arithmetic" k2="-1" k3="1"/>
<feColorMatrix type="matrix" values="0 0 0 0 0.46248 0 0 0 0 0.46248 0 0 0 0 0.46248 0 0 0 0.59 0"/>
<feBlend mode="normal" in2="shape" result="effect1_innerShadow_2_47"/>
</filter>
<filter id="filter3_i_2_47" x="2585.6" y="112.772" width="583.318" height="828.4" filterUnits="userSpaceOnUse" color-interpolation-filters="sRGB">
<feFlood flood-opacity="0" result="BackgroundImageFix"/>
<feBlend mode="normal" in="SourceGraphic" in2="BackgroundImageFix" result="shape"/>
<feColorMatrix in="SourceAlpha" type="matrix" values="0 0 0 0 0 0 0 0 0 0 0 0 0 0 0 0 0 0 127 0" result="hardAlpha"/>
<feOffset dx="-10" dy="-21"/>
<feGaussianBlur stdDeviation="4.7"/>
<feComposite in2="hardAlpha" operator="arithmetic" k2="-1" k3="1"/>
<feColorMatrix type="matrix" values="0 0 0 0 0.46248 0 0 0 0 0.46248 0 0 0 0 0.46248 0 0 0 0.59 0"/>
<feBlend mode="normal" in2="shape" result="effect1_innerShadow_2_47"/>
</filter>
<filter id="filter4_i_2_47" x="2011.6" y="99.7716" width="583.318" height="828.4" filterUnits="userSpaceOnUse" color-interpolation-filters="sRGB">
<feFlood flood-opacity="0" result="BackgroundImageFix"/>
<feBlend mode="normal" in="SourceGraphic" in2="BackgroundImageFix" result="shape"/>
<feColorMatrix in="SourceAlpha" type="matrix" values="0 0 0 0 0 0 0 0 0 0 0 0 0 0 0 0 0 0 127 0" result="hardAlpha"/>
<feOffset dx="-10" dy="-21"/>
<feGaussianBlur stdDeviation="4.7"/>
<feComposite in2="hardAlpha" operator="arithmetic" k2="-1" k3="1"/>
<feColorMatrix type="matrix" values="0 0 0 0 0.46248 0 0 0 0 0.46248 0 0 0 0 0.46248 0 0 0 0.59 0"/>
<feBlend mode="normal" in2="shape" result="effect1_innerShadow_2_47"/>
</filter>
<filter id="filter5_i_2_47" x="4502.06" y="101.485" width="581.608" height="830.686" filterUnits="userSpaceOnUse" color-interpolation-filters="sRGB">
<feFlood flood-opacity="0" result="BackgroundImageFix"/>
<feBlend mode="normal" in="SourceGraphic" in2="BackgroundImageFix" result="shape"/>
<feColorMatrix in="SourceAlpha" type="matrix" values="0 0 0 0 0 0 0 0 0 0 0 0 0 0 0 0 0 0 127 0" result="hardAlpha"/>
<feOffset dx="-10" dy="-21"/>
<feGaussianBlur stdDeviation="4.7"/>
<feComposite in2="hardAlpha" operator="arithmetic" k2="-1" k3="1"/>
<feColorMatrix type="matrix" values="0 0 0 0 0.46248 0 0 0 0 0.46248 0 0 0 0 0.46248 0 0 0 0.59 0"/>
<feBlend mode="normal" in2="shape" result="effect1_innerShadow_2_47"/>
</filter>
<filter id="filter6_i_2_47" x="5.55239" y="109.272" width="522.632" height="825.466" filterUnits="userSpaceOnUse" color-interpolation-filters="sRGB">
<feFlood flood-opacity="0" result="BackgroundImageFix"/>
<feBlend mode="normal" in="SourceGraphic" in2="BackgroundImageFix" result="shape"/>
<feColorMatrix in="SourceAlpha" type="matrix" values="0 0 0 0 0 0 0 0 0 0 0 0 0 0 0 0 0 0 127 0" result="hardAlpha"/>
<feOffset dx="-10" dy="-21"/>
<feGaussianBlur stdDeviation="4.7"/>
<feComposite in2="hardAlpha" operator="arithmetic" k2="-1" k3="1"/>
<feColorMatrix type="matrix" values="0 0 0 0 0.46248 0 0 0 0 0.46248 0 0 0 0 0.46248 0 0 0 0.59 0"/>
<feBlend mode="normal" in2="shape" result="effect1_innerShadow_2_47"/>
</filter>
<filter id="filter7_i_2_47" x="961.552" y="109.772" width="522.633" height="825.466" filterUnits="userSpaceOnUse" color-interpolation-filters="sRGB">
<feFlood flood-opacity="0" result="BackgroundImageFix"/>
<feBlend mode="normal" in="SourceGraphic" in2="BackgroundImageFix" result="shape"/>
<feColorMatrix in="SourceAlpha" type="matrix" values="0 0 0 0 0 0 0 0 0 0 0 0 0 0 0 0 0 0 127 0" result="hardAlpha"/>
<feOffset dx="-10" dy="-21"/>
<feGaussianBlur stdDeviation="4.7"/>
<feComposite in2="hardAlpha" operator="arithmetic" k2="-1" k3="1"/>
<feColorMatrix type="matrix" values="0 0 0 0 0.46248 0 0 0 0 0.46248 0 0 0 0 0.46248 0 0 0 0.59 0"/>
<feBlend mode="normal" in2="shape" result="effect1_innerShadow_2_47"/>
</filter>
<filter id="filter8_i_2_47" x="1500.55" y="109.772" width="522.632" height="825.466" filterUnits="userSpaceOnUse" color-interpolation-filters="sRGB">
<feFlood flood-opacity="0" result="BackgroundImageFix"/>
<feBlend mode="normal" in="SourceGraphic" in2="BackgroundImageFix" result="shape"/>
<feColorMatrix in="SourceAlpha" type="matrix" values="0 0 0 0 0 0 0 0 0 0 0 0 0 0 0 0 0 0 127 0" result="hardAlpha"/>
<feOffset dx="-10" dy="-21"/>
<feGaussianBlur stdDeviation="4.7"/>
<feComposite in2="hardAlpha" operator="arithmetic" k2="-1" k3="1"/>
<feColorMatrix type="matrix" values="0 0 0 0 0.46248 0 0 0 0 0.46248 0 0 0 0 0.46248 0 0 0 0.59 0"/>
<feBlend mode="normal" in2="shape" result="effect1_innerShadow_2_47"/>
</filter>
<filter id="filter9_i_2_47" x="462.816" y="103.79" width="584.425" height="834.881" filterUnits="userSpaceOnUse" color-interpolation-filters="sRGB">
<feFlood flood-opacity="0" result="BackgroundImageFix"/>
<feBlend mode="normal" in="SourceGraphic" in2="BackgroundImageFix" result="shape"/>
<feColorMatrix in="SourceAlpha" type="matrix" values="0 0 0 0 0 0 0 0 0 0 0 0 0 0 0 0 0 0 127 0" result="hardAlpha"/>
<feOffset dx="-10" dy="-21"/>
<feGaussianBlur stdDeviation="4.7"/>
<feComposite in2="hardAlpha" operator="arithmetic" k2="-1" k3="1"/>
<feColorMatrix type="matrix" values="0 0 0 0 0.46248 0 0 0 0 0.46248 0 0 0 0 0.46248 0 0 0 0.59 0"/>
<feBlend mode="normal" in2="shape" result="effect1_innerShadow_2_47"/>
</filter>
<filter id="filter10_i_2_47" x="3962.52" y="103.272" width="582.445" height="845.34" filterUnits="userSpaceOnUse" color-interpolation-filters="sRGB">
<feFlood flood-opacity="0" result="BackgroundImageFix"/>
<feBlend mode="normal" in="SourceGraphic" in2="BackgroundImageFix" result="shape"/>
<feColorMatrix in="SourceAlpha" type="matrix" values="0 0 0 0 0 0 0 0 0 0 0 0 0 0 0 0 0 0 127 0" result="hardAlpha"/>
<feOffset dx="-10" dy="-21"/>
<feGaussianBlur stdDeviation="4.7"/>
<feComposite in2="hardAlpha" operator="arithmetic" k2="-1" k3="1"/>
<feColorMatrix type="matrix" values="0 0 0 0 0.46248 0 0 0 0 0.46248 0 0 0 0 0.46248 0 0 0 0.59 0"/>
<feBlend mode="normal" in2="shape" result="effect1_innerShadow_2_47"/>
</filter>
<filter id="filter11_i_2_47" x="3163.52" y="98.7716" width="582.445" height="845.34" filterUnits="userSpaceOnUse" color-interpolation-filters="sRGB">
<feFlood flood-opacity="0" result="BackgroundImageFix"/>
<feBlend mode="normal" in="SourceGraphic" in2="BackgroundImageFix" result="shape"/>
<feColorMatrix in="SourceAlpha" type="matrix" values="0 0 0 0 0 0 0 0 0 0 0 0 0 0 0 0 0 0 127 0" result="hardAlpha"/>
<feOffset dx="-10" dy="-21"/>
<feGaussianBlur stdDeviation="4.7"/>
<feComposite in2="hardAlpha" operator="arithmetic" k2="-1" k3="1"/>
<feColorMatrix type="matrix" values="0 0 0 0 0.46248 0 0 0 0 0.46248 0 0 0 0 0.46248 0 0 0 0.59 0"/>
<feBlend mode="normal" in2="shape" result="effect1_innerShadow_2_47"/>
</filter>
<filter id="filter12_i_2_47" x="3087.44" y="32.2716" width="117.52" height="143.613" filterUnits="userSpaceOnUse" color-interpolation-filters="sRGB">
<feFlood flood-opacity="0" result="BackgroundImageFix"/>
<feBlend mode="normal" in="SourceGraphic" in2="BackgroundImageFix" result="shape"/>
<feColorMatrix in="SourceAlpha" type="matrix" values="0 0 0 0 0 0 0 0 0 0 0 0 0 0 0 0 0 0 127 0" result="hardAlpha"/>
<feOffset dx="-10" dy="-21"/>
<feGaussianBlur stdDeviation="4.7"/>
<feComposite in2="hardAlpha" operator="arithmetic" k2="-1" k3="1"/>
<feColorMatrix type="matrix" values="0 0 0 0 0.46248 0 0 0 0 0.46248 0 0 0 0 0.46248 0 0 0 0.59 0"/>
<feBlend mode="normal" in2="shape" result="effect1_innerShadow_2_47"/>
</filter>
</defs>
</svg>
